# xmcd
#
# Track frame offsets:
#   150
#   11659
#   25842
#   37784
#   52584
#   69161
#   81971
#   101981
#   115584
#   125075
#   139964
#   164429
#
# Disc length: 2402 seconds
#
# Revision: 0
# Processed by: cddbd v1.5.1PL0 Copyright (c) Steve Scherf et al.
# Submitted via: uFREEDB ActiveX Control 1.5
#
DISCID=9509600c
DTITLE=George Harmônica Smith - Tribute To Little Walter
DYEAR=1968
DGENRE=Blues
TTITLE0=1
TTITLE1=2
TTITLE2=3
TTITLE3=4
TTITLE4=5
TTITLE5=6
TTITLE6=7
TTITLE7=8
TTITLE8=9
TTITLE9=10
TTITLE10=11
TTITLE11=12
EXTD=
EXTT0=
EXTT1=
EXTT2=
EXTT3=
EXTT4=
EXTT5=
EXTT6=
EXTT7=
EXTT8=
EXTT9=
EXTT10=
EXTT11=
PLAYORDER=
